<svg xmlns="http://www.w3.org/2000/svg" xmlns:xlink="http://www.w3.org/1999/xlink" width="100.0" height="100.0" viewBox="-0.44 -0.44 11.879999999999999 11.879999999999999" preserveAspectRatio="xMinYMin meet"><g transform="matrix(1,0,0,-1,0,11.0)"><g><path fill-rule="evenodd" fill="#66cc99" stroke="#555555" stroke-width="0.23759999999999998" opacity="0.6" d="M 0.0,1.0 L 1.0,1.0 L 1.0,0.0 L 0.0,0.0 L 0.0,1.0 z" /><path fill-rule="evenodd" fill="#66cc99" stroke="#555555" stroke-width="0.23759999999999998" opacity="0.6" d="M 2.0,0.0 L 2.0,1.0 L 3.0,1.0 L 3.0,0.0 L 2.0,0.0 z" /><path fill-rule="evenodd" fill="#66cc99" stroke="#555555" stroke-width="0.23759999999999998" opacity="0.6" d="M 4.0,2.0 L 4.0,1.0 L 3.0,1.0 L 3.0,2.0 L 4.0,2.0 z" /><path fill-rule="evenodd" fill="#66cc99" stroke="#555555" stroke-width="0.23759999999999998" opacity="0.6" d="M 2.0,1.0 L 1.0,1.0 L 1.0,2.0 L 2.0,2.0 L 2.0,1.0 z" /><path fill-rule="evenodd" fill="#66cc99" stroke="#555555" stroke-width="0.23759999999999998" opacity="0.6" d="M 0.0,3.0 L 1.0,3.0 L 1.0,2.0 L 0.0,2.0 L 0.0,3.0 z" /><path fill-rule="evenodd" fill="#66cc99" stroke="#555555" stroke-width="0.23759999999999998" opacity="0.6" d="M 3.0,2.0 L 2.0,2.0 L 2.0,3.0 L 3.0,3.0 L 3.0,2.0 z" /><path fill-rule="evenodd" fill="#66cc99" stroke="#555555" stroke-width="0.23759999999999998" opacity="0.6" d="M 1.0,4.0 L 2.0,4.0 L 2.0,3.0 L 1.0,3.0 L 1.0,4.0 z" /><path fill-rule="evenodd" fill="#66cc99" stroke="#555555" stroke-width="0.23759999999999998" opacity="0.6" d="M 1.0,5.0 L 1.0,4.0 L 0.0,4.0 L 0.0,5.0 L 1.0,5.0 z" /><path fill-rule="evenodd" fill="#66cc99" stroke="#555555" stroke-width="0.23759999999999998" opacity="0.6" d="M 3.0,5.0 L 3.0,4.0 L 2.0,4.0 L 2.0,5.0 L 3.0,5.0 z" /><path fill-rule="evenodd" fill="#66cc99" stroke="#555555" stroke-width="0.23759999999999998" opacity="0.6" d="M 4.0,6.0 L 4.0,5.0 L 3.0,5.0 L 3.0,6.0 L 4.0,6.0 z" /><path fill-rule="evenodd" fill="#66cc99" stroke="#555555" stroke-width="0.23759999999999998" opacity="0.6" d="M 2.0,6.0 L 2.0,5.0 L 1.0,5.0 L 1.0,6.0 L 2.0,6.0 z" /><path fill-rule="evenodd" fill="#66cc99" stroke="#555555" stroke-width="0.23759999999999998" opacity="0.6" d="M 1.0,7.0 L 1.0,6.0 L 0.0,6.0 L 0.0,7.0 L 1.0,7.0 z" /><path fill-rule="evenodd" fill="#66cc99" stroke="#555555" stroke-width="0.23759999999999998" opacity="0.6" d="M 3.0,7.0 L 3.0,6.0 L 2.0,6.0 L 2.0,7.0 L 3.0,7.0 z" /><path fill-rule="evenodd" fill="#66cc99" stroke="#555555" stroke-width="0.23759999999999998" opacity="0.6" d="M 2.0,8.0 L 2.0,7.0 L 1.0,7.0 L 1.0,8.0 L 2.0,8.0 z" /><path fill-rule="evenodd" fill="#66cc99" stroke="#555555" stroke-width="0.23759999999999998" opacity="0.6" d="M 4.0,8.0 L 4.0,7.0 L 3.0,7.0 L 3.0,8.0 L 4.0,8.0 z" /><path fill-rule="evenodd" fill="#66cc99" stroke="#555555" stroke-width="0.23759999999999998" opacity="0.6" d="M 3.0,9.0 L 3.0,8.0 L 2.0,8.0 L 2.0,9.0 L 3.0,9.0 z" /><path fill-rule="evenodd" fill="#66cc99" stroke="#555555" stroke-width="0.23759999999999998" opacity="0.6" d="M 0.0,8.0 L 0.0,9.0 L 1.0,9.0 L 1.0,8.0 L 0.0,8.0 z" /><path fill-rule="evenodd" fill="#66cc99" stroke="#555555" stroke-width="0.23759999999999998" opacity="0.6" d="M 2.0,10.0 L 2.0,9.0 L 1.0,9.0 L 1.0,10.0 L 2.0,10.0 z" /><path fill-rule="evenodd" fill="#66cc99" stroke="#555555" stroke-width="0.23759999999999998" opacity="0.6" d="M 4.0,9.0 L 3.0,9.0 L 3.0,10.0 L 4.0,10.0 L 4.0,9.0 z" /><path fill-rule="evenodd" fill="#66cc99" stroke="#555555" stroke-width="0.23759999999999998" opacity="0.6" d="M 2.0,11.0 L 3.0,11.0 L 3.0,10.0 L 2.0,10.0 L 2.0,11.0 z" /><path fill-rule="evenodd" fill="#66cc99" stroke="#555555" stroke-width="0.23759999999999998" opacity="0.6" d="M 1.0,11.0 L 1.0,10.0 L 0.0,10.0 L 0.0,11.0 L 1.0,11.0 z" /><path fill-rule="evenodd" fill="#66cc99" stroke="#555555" stroke-width="0.23759999999999998" opacity="0.6" d="M 5.0,1.0 L 5.0,0.0 L 4.0,0.0 L 4.0,1.0 L 5.0,1.0 z" /><path fill-rule="evenodd" fill="#66cc99" stroke="#555555" stroke-width="0.23759999999999998" opacity="0.6" d="M 7.0,0.0 L 6.0,0.0 L 6.0,1.0 L 7.0,1.0 L 7.0,0.0 z" /><path fill-rule="evenodd" fill="#66cc99" stroke="#555555" stroke-width="0.23759999999999998" opacity="0.6" d="M 5.0,2.0 L 6.0,2.0 L 6.0,1.0 L 5.0,1.0 L 5.0,2.0 z" /><path fill-rule="evenodd" fill="#66cc99" stroke="#555555" stroke-width="0.23759999999999998" opacity="0.6" d="M 8.0,2.0 L 8.0,1.0 L 7.0,1.0 L 7.0,2.0 L 8.0,2.0 z" /><path fill-rule="evenodd" fill="#66cc99" stroke="#555555" stroke-width="0.23759999999999998" opacity="0.6" d="M 5.0,3.0 L 5.0,2.0 L 4.0,2.0 L 4.0,3.0 L 5.0,3.0 z" /><path fill-rule="evenodd" fill="#66cc99" stroke="#555555" stroke-width="0.23759999999999998" opacity="0.6" d="M 6.0,2.0 L 6.0,3.0 L 7.0,3.0 L 7.0,2.0 L 6.0,2.0 z" /><path fill-rule="evenodd" fill="#66cc99" stroke="#555555" stroke-width="0.23759999999999998" opacity="0.6" d="M 8.0,4.0 L 8.0,3.0 L 7.0,3.0 L 7.0,4.0 L 8.0,4.0 z" /><path fill-rule="evenodd" fill="#66cc99" stroke="#555555" stroke-width="0.23759999999999998" opacity="0.6" d="M 4.0,4.0 L 4.0,3.0 L 3.0,3.0 L 3.0,4.0 L 4.0,4.0 z" /><path fill-rule="evenodd" fill="#66cc99" stroke="#555555" stroke-width="0.23759999999999998" opacity="0.6" d="M 6.0,4.0 L 6.0,3.0 L 5.0,3.0 L 5.0,4.0 L 6.0,4.0 z" /><path fill-rule="evenodd" fill="#66cc99" stroke="#555555" stroke-width="0.23759999999999998" opacity="0.6" d="M 7.0,4.0 L 6.0,4.0 L 6.0,5.0 L 7.0,5.0 L 7.0,4.0 z" /><path fill-rule="evenodd" fill="#66cc99" stroke="#555555" stroke-width="0.23759999999999998" opacity="0.6" d="M 5.0,5.0 L 5.0,4.0 L 4.0,4.0 L 4.0,5.0 L 5.0,5.0 z" /><path fill-rule="evenodd" fill="#66cc99" stroke="#555555" stroke-width="0.23759999999999998" opacity="0.6" d="M 8.0,6.0 L 8.0,5.0 L 7.0,5.0 L 7.0,6.0 L 8.0,6.0 z" /><path fill-rule="evenodd" fill="#66cc99" stroke="#555555" stroke-width="0.23759999999999998" opacity="0.6" d="M 5.0,5.0 L 5.0,6.0 L 6.0,6.0 L 6.0,5.0 L 5.0,5.0 z" /><path fill-rule="evenodd" fill="#66cc99" stroke="#555555" stroke-width="0.23759999999999998" opacity="0.6" d="M 7.0,7.0 L 7.0,6.0 L 6.0,6.0 L 6.0,7.0 L 7.0,7.0 z" /><path fill-rule="evenodd" fill="#66cc99" stroke="#555555" stroke-width="0.23759999999999998" opacity="0.6" d="M 4.0,6.0 L 4.0,7.0 L 5.0,7.0 L 5.0,6.0 L 4.0,6.0 z" /><path fill-rule="evenodd" fill="#66cc99" stroke="#555555" stroke-width="0.23759999999999998" opacity="0.6" d="M 6.0,8.0 L 6.0,7.0 L 5.0,7.0 L 5.0,8.0 L 6.0,8.0 z" /><path fill-rule="evenodd" fill="#66cc99" stroke="#555555" stroke-width="0.23759999999999998" opacity="0.6" d="M 7.0,9.0 L 7.0,8.0 L 6.0,8.0 L 6.0,9.0 L 7.0,9.0 z" /><path fill-rule="evenodd" fill="#66cc99" stroke="#555555" stroke-width="0.23759999999999998" opacity="0.6" d="M 5.0,9.0 L 5.0,8.0 L 4.0,8.0 L 4.0,9.0 L 5.0,9.0 z" /><path fill-rule="evenodd" fill="#66cc99" stroke="#555555" stroke-width="0.23759999999999998" opacity="0.6" d="M 5.0,9.0 L 5.0,10.0 L 6.0,10.0 L 6.0,9.0 L 5.0,9.0 z" /><path fill-rule="evenodd" fill="#66cc99" stroke="#555555" stroke-width="0.23759999999999998" opacity="0.6" d="M 7.0,11.0 L 7.0,10.0 L 6.0,10.0 L 6.0,11.0 L 7.0,11.0 z" /><path fill-rule="evenodd" fill="#66cc99" stroke="#555555" stroke-width="0.23759999999999998" opacity="0.6" d="M 5.0,11.0 L 5.0,10.0 L 4.0,10.0 L 4.0,11.0 L 5.0,11.0 z" /><path fill-rule="evenodd" fill="#66cc99" stroke="#555555" stroke-width="0.23759999999999998" opacity="0.6" d="M 9.0,1.0 L 9.0,0.0 L 8.0,0.0 L 8.0,1.0 L 9.0,1.0 z" /><path fill-rule="evenodd" fill="#66cc99" stroke="#555555" stroke-width="0.23759999999999998" opacity="0.6" d="M 11.0,0.0 L 10.0,0.0 L 10.0,1.0 L 11.0,1.0 L 11.0,0.0 z" /><path fill-rule="evenodd" fill="#66cc99" stroke="#555555" stroke-width="0.23759999999999998" opacity="0.6" d="M 9.0,2.0 L 10.0,2.0 L 10.0,1.0 L 9.0,1.0 L 9.0,2.0 z" /><path fill-rule="evenodd" fill="#66cc99" stroke="#555555" stroke-width="0.23759999999999998" opacity="0.6" d="M 9.0,3.0 L 9.0,2.0 L 8.0,2.0 L 8.0,3.0 L 9.0,3.0 z" /><path fill-rule="evenodd" fill="#66cc99" stroke="#555555" stroke-width="0.23759999999999998" opacity="0.6" d="M 11.0,3.0 L 11.0,2.0 L 10.0,2.0 L 10.0,3.0 L 11.0,3.0 z" /><path fill-rule="evenodd" fill="#66cc99" stroke="#555555" stroke-width="0.23759999999999998" opacity="0.6" d="M 10.0,3.0 L 9.0,3.0 L 9.0,4.0 L 10.0,4.0 L 10.0,3.0 z" /><path fill-rule="evenodd" fill="#66cc99" stroke="#555555" stroke-width="0.23759999999999998" opacity="0.6" d="M 8.0,5.0 L 9.0,5.0 L 9.0,4.0 L 8.0,4.0 L 8.0,5.0 z" /><path fill-rule="evenodd" fill="#66cc99" stroke="#555555" stroke-width="0.23759999999999998" opacity="0.6" d="M 11.0,4.0 L 10.0,4.0 L 10.0,5.0 L 11.0,5.0 L 11.0,4.0 z" /><path fill-rule="evenodd" fill="#66cc99" stroke="#555555" stroke-width="0.23759999999999998" opacity="0.6" d="M 9.0,6.0 L 10.0,6.0 L 10.0,5.0 L 9.0,5.0 L 9.0,6.0 z" /><path fill-rule="evenodd" fill="#66cc99" stroke="#555555" stroke-width="0.23759999999999998" opacity="0.6" d="M 9.0,7.0 L 9.0,6.0 L 8.0,6.0 L 8.0,7.0 L 9.0,7.0 z" /><path fill-rule="evenodd" fill="#66cc99" stroke="#555555" stroke-width="0.23759999999999998" opacity="0.6" d="M 11.0,7.0 L 11.0,6.0 L 10.0,6.0 L 10.0,7.0 L 11.0,7.0 z" /><path fill-rule="evenodd" fill="#66cc99" stroke="#555555" stroke-width="0.23759999999999998" opacity="0.6" d="M 8.0,8.0 L 8.0,7.0 L 7.0,7.0 L 7.0,8.0 L 8.0,8.0 z" /><path fill-rule="evenodd" fill="#66cc99" stroke="#555555" stroke-width="0.23759999999999998" opacity="0.6" d="M 10.0,8.0 L 10.0,7.0 L 9.0,7.0 L 9.0,8.0 L 10.0,8.0 z" /><path fill-rule="evenodd" fill="#66cc99" stroke="#555555" stroke-width="0.23759999999999998" opacity="0.6" d="M 11.0,9.0 L 11.0,8.0 L 10.0,8.0 L 10.0,9.0 L 11.0,9.0 z" /><path fill-rule="evenodd" fill="#66cc99" stroke="#555555" stroke-width="0.23759999999999998" opacity="0.6" d="M 9.0,9.0 L 9.0,8.0 L 8.0,8.0 L 8.0,9.0 L 9.0,9.0 z" /><path fill-rule="evenodd" fill="#66cc99" stroke="#555555" stroke-width="0.23759999999999998" opacity="0.6" d="M 8.0,10.0 L 8.0,9.0 L 7.0,9.0 L 7.0,10.0 L 8.0,10.0 z" /><path fill-rule="evenodd" fill="#66cc99" stroke="#555555" stroke-width="0.23759999999999998" opacity="0.6" d="M 10.0,10.0 L 10.0,9.0 L 9.0,9.0 L 9.0,10.0 L 10.0,10.0 z" /><path fill-rule="evenodd" fill="#66cc99" stroke="#555555" stroke-width="0.23759999999999998" opacity="0.6" d="M 9.0,11.0 L 9.0,10.0 L 8.0,10.0 L 8.0,11.0 L 9.0,11.0 z" /><path fill-rule="evenodd" fill="#66cc99" stroke="#555555" stroke-width="0.23759999999999998" opacity="0.6" d="M 11.0,11.0 L 11.0,10.0 L 10.0,10.0 L 10.0,11.0 L 11.0,11.0 z" /></g></g></svg>